HIERARCHY
ROOT hip
{
  OFFSET 0 0 0
  CHANNELS 6 Xposition Yposition Zposition Zrotation Yrotation Xrotation
  JOINT abdomen
  {
    OFFSET 0 20.6881 -0.73152
    CHANNELS 3 Zrotation Xrotation Yrotation
    JOINT chest
    {
      OFFSET 0 11.7043 -0.48768
      CHANNELS 3 Zrotation Xrotation Yrotation
      JOINT neck
      {
        OFFSET 0 22.1894 -2.19456
        CHANNELS 3 Zrotation Xrotation Yrotation
        JOINT head
        {
          OFFSET -0.24384 7.07133 1.2192
          CHANNELS 3 Zrotation Xrotation Yrotation
          JOINT leftEye
          {
            OFFSET 4.14528 8.04674 8.04672
            CHANNELS 3 Zrotation Xrotation Yrotation
            End Site
            {
              OFFSET 1 0 0
            }
          }
          JOINT rightEye
          {
            OFFSET -3.6576 8.04674 8.04672
            CHANNELS 3 Zrotation Xrotation Yrotation
            End Site
            {
              OFFSET 1 0 0
            }
          }
        }
      }
      JOINT rCollar
      {
        OFFSET -2.68224 19.2634 -4.8768
        CHANNELS 3 Zrotation Xrotation Yrotation
        JOINT rShldr
        {
          OFFSET -8.77824 -1.95073 1.46304
          CHANNELS 3 Zrotation Xrotation Yrotation
          JOINT rForeArm
          {
            OFFSET -28.1742 -1.7115 0.48768
            CHANNELS 3 Zrotation Xrotation Yrotation
            JOINT rHand
            {
              OFFSET -22.5879 0.773209 7.07136
              CHANNELS 3 Zrotation Xrotation Yrotation
              JOINT rThumb1
              {
                OFFSET -1.2192 -0.487915 3.41376
                CHANNELS 3 Zrotation Xrotation Yrotation
                JOINT rThumb2
                {
                  OFFSET -3.37035 -0.52449 3.41376
                  CHANNELS 3 Zrotation Xrotation Yrotation
                  End Site
                  {
                    OFFSET -1.78271 -1.18214 1.43049
                  }
                }
              }
              JOINT rIndex1
              {
                OFFSET -7.75947 0.938293 5.60832
                CHANNELS 3 Zrotation Xrotation Yrotation
                JOINT rIndex2
                {
                  OFFSET -2.54057 -0.884171 1.56538
                  CHANNELS 3 Zrotation Xrotation Yrotation
                  End Site
                  {
                    OFFSET -1.62519 -0.234802 1.16502
                  }
                }
              }
              JOINT rMid1
              {
                OFFSET -8.24714 1.18213 3.41376
                CHANNELS 3 Zrotation Xrotation Yrotation
                JOINT rMid2
                {
                  OFFSET -3.10165 -0.590103 1.0647
                  CHANNELS 3 Zrotation Xrotation Yrotation
                  End Site
                  {
                    OFFSET -2.48547 -0.328903 0.83742
                  }
                }
              }
              JOINT rRing1
              {
                OFFSET -8.82822 0.546677 1.51678
                CHANNELS 3 Zrotation Xrotation Yrotation
                JOINT rRing2
                {
                  OFFSET -2.60934 -0.819778 -0.0198488
                  CHANNELS 3 Zrotation Xrotation Yrotation
                  End Site
                  {
                    OFFSET -2.33842 -0.294052 0.168128
                  }
                }
              }
              JOINT rPinky1
              {
                OFFSET -8.27202 -0.0477905 -0.4584
                CHANNELS 3 Zrotation Xrotation Yrotation
                JOINT rPinky2
                {
                  OFFSET -1.82734 -0.647385 -0.700984
                  CHANNELS 3 Zrotation Xrotation Yrotation
                  End Site
                  {
                    OFFSET -1.69225 -0.51767 -0.607171
                  }
                }
              }
            }
          }
        }
      }
      JOINT lCollar
      {
        OFFSET 2.68224 19.2634 -4.8768
        CHANNELS 3 Zrotation Xrotation Yrotation
        JOINT lShldr
        {
          OFFSET 8.77824 -1.95073 1.46304
          CHANNELS 3 Zrotation Xrotation Yrotation
          JOINT lForeArm
          {
            OFFSET 28.1742 -1.7115 0.48768
            CHANNELS 3 Zrotation Xrotation Yrotation
            JOINT lHand
            {
              OFFSET 22.5879 0.773209 7.07136
              CHANNELS 3 Zrotation Xrotation Yrotation
              JOINT lThumb1
              {
                OFFSET 1.2192 -0.487915 3.41376
                CHANNELS 3 Zrotation Xrotation Yrotation
                JOINT lThumb2
                {
                  OFFSET 3.37035 -0.52449 3.41376
                  CHANNELS 3 Zrotation Xrotation Yrotation
                  End Site
                  {
                    OFFSET 1.78271 -1.18214 1.43049
                  }
                }
              }
              JOINT lIndex1
              {
                OFFSET 7.75947 0.938293 5.60832
                CHANNELS 3 Zrotation Xrotation Yrotation
                JOINT lIndex2
                {
                  OFFSET 2.54057 -0.884171 1.56538
                  CHANNELS 3 Zrotation Xrotation Yrotation
                  End Site
                  {
                    OFFSET 1.62519 -0.234802 1.16502
                  }
                }
              }
              JOINT lMid1
              {
                OFFSET 8.24714 1.18213 3.41376
                CHANNELS 3 Zrotation Xrotation Yrotation
                JOINT lMid2
                {
                  OFFSET 3.10165 -0.590103 1.0647
                  CHANNELS 3 Zrotation Xrotation Yrotation
                  End Site
                  {
                    OFFSET 2.48547 -0.328903 0.83742
                  }
                }
              }
              JOINT lRing1
              {
                OFFSET 8.82822 0.546677 1.51678
                CHANNELS 3 Zrotation Xrotation Yrotation
                JOINT lRing2
                {
                  OFFSET 2.60934 -0.819778 -0.0198488
                  CHANNELS 3 Zrotation Xrotation Yrotation
                  End Site
                  {
                    OFFSET 2.33842 -0.294052 0.168128
                  }
                }
              }
              JOINT lPinky1
              {
                OFFSET 8.27202 -0.0477905 -0.4584
                CHANNELS 3 Zrotation Xrotation Yrotation
                JOINT lPinky2
                {
                  OFFSET 1.82734 -0.647385 -0.700984
                  CHANNELS 3 Zrotation Xrotation Yrotation
                  End Site
                  {
                    OFFSET 1.69225 -0.51767 -0.607171
                  }
                }
              }
            }
          }
        }
      }
    }
  }
  JOINT rButtock
  {
    OFFSET -8.77824 4.35084 1.2192
    CHANNELS 3 Zrotation Xrotation Yrotation
    JOINT rThigh
    {
      OFFSET 0 -1.70687 -2.19456
      CHANNELS 3 Zrotation Xrotation Yrotation
      JOINT rShin
      {
        OFFSET 0 -36.8199 0.73152
        CHANNELS 3 Zrotation Xrotation Yrotation
        JOINT rFoot
        {
          OFFSET 0.73152 -45.1104 -5.12064
          CHANNELS 3 Zrotation Xrotation Yrotation
          End Site
          {
            OFFSET -1.1221 -3.69964 12.103
          }
        }
      }
    }
  }
  JOINT lButtock
  {
    OFFSET 8.77824 4.35084 1.2192
    CHANNELS 3 Zrotation Xrotation Yrotation
    JOINT lThigh
    {
      OFFSET 0 -1.70687 -2.19456
      CHANNELS 3 Zrotation Xrotation Yrotation
      JOINT lShin
      {
        OFFSET 0 -36.8199 0.73152
        CHANNELS 3 Zrotation Xrotation Yrotation
        JOINT lFoot
        {
          OFFSET -0.73152 -45.1104 -5.12064
          CHANNELS 3 Zrotation Xrotation Yrotation
          End Site
          {
            OFFSET 1.1221 -3.69964 12.103
          }
        }
      }
    }
  }
}
MOTION
Frames:	6
Frame Time:	0.00833333
-63.7192 84.8839 -60.6054 0.0 0.0 0.0 -0.194077 -0.000752048 -0.00553942 -0.0535363 -0.00112971 -0.00927448 -2.85708e-15 -7.95139e-16 -2.79541e-17 -8.57259e-15 3.18055e-15 -7.29912e-17 -0.0 0.0 0.0 -0.0 0.0 0.0 -1.39288e-15 -2.32951e-18 1.98785e-16 -2.7464e-14 -3.04389e-16 3.97569e-16 -5.16144e-13 1.53859e-13 1.90833e-14 -5.91297e-12 -1.59525e-13 -8.5875e-14 -1.39481e-11 -8.79112e-15 -1.17681e-13 -2.40883e-11 -1.90833e-14 -2.08326e-13 -1.39424e-11 -7.15625e-15 -1.24042e-13 7.73091 5.47488 0.417314 -1.39477e-11 -8.24956e-15 -1.20861e-13 2.90554 0.965183 0.102902 -1.39408e-11 -8.24956e-15 -1.20066e-13 10.2786 0.731801 0.0259123 -1.39537e-11 -7.55382e-15 -1.08139e-13 2.22167 -0.733487 -0.20892 -1.48959e-15 -2.52363e-18 -1.98785e-16 -3.17884e-14 -1.18028e-16 -1.19271e-15 -5.15796e-13 -1.55847e-13 -1.90833e-14 -5.91511e-12 1.47026e-13 -3.18055e-14 -1.39487e-11 -1.86712e-14 -1.20861e-13 -2.40883e-11 -2.8625e-14 -2.00375e-13 -1.39519e-11 -1.55052e-14 -1.11319e-13 -7.73091 5.47488 -0.417314 -1.39493e-11 -1.799e-14 -1.20861e-13 -2.90554 0.965183 -0.102902 -1.39637e-11 -1.77912e-14 -1.21656e-13 -10.2786 0.731801 -0.0259123 -1.39432e-11 -1.86858e-14 -1.33583e-13 -2.22167 -0.733487 0.20892 -2.03217e-16 0.0 -3.88251e-19 0.355853 -2.82714 -0.0340695 -0.00665506 -0.431854 -0.0584473 -0.502544 3.25829 0.123799 2.03217e-16 0.0 3.88251e-19 -0.651362 -3.58303 0.0525571 0.00446002 0.937454 0.0381204 0.50497 2.64491 -0.111592
-63.5358 84.0821 -71.3988 179.938 10.4156 177.436 1.39327 4.13581 -1.39823 0.999194 -1.18083 -0.240782 -3.48155 6.18775 -7.16739 7.47278 3.5928 -13.2365 -0.0 0.0 0.0 -0.0 0.0 0.0 -1.15088e-14 6.91717e-14 1.03681e-13 21.333 6.98759 5.11281 -4.60283 -2.17366 7.09774 0.00524819 1.60769 0.225625 -5.44169e-10 1.83501e-09 -2.18573e-10 -9.42306e-10 3.17607e-09 -3.73968e-10 -5.44161e-10 1.83501e-09 -2.1858e-10 7.73091 5.47488 0.417314 -5.44169e-10 1.83501e-09 -2.18576e-10 2.90554 0.965183 0.102902 -5.44161e-10 1.83501e-09 -2.18575e-10 10.2786 0.731801 0.0259123 -5.44172e-10 1.83501e-09 -2.18565e-10 2.22167 -0.733487 -0.20892 -1.15871e-14 6.9179e-14 1.03305e-13 -22.0204 3.80652 2.18587 3.8512 -1.68244 -6.08637 -0.005839 1.69599 -0.237979 -2.72201e-10 2.56611e-11 1.07718e-09 -4.64436e-10 4.73258e-11 1.86504e-09 -2.72205e-10 2.56635e-11 1.07719e-09 -7.73091 5.47488 -0.417314 -2.72201e-10 2.56629e-11 1.07718e-09 -2.90554 0.965183 -0.102902 -2.72214e-10 2.56628e-11 1.07718e-09 -10.2786 0.731801 -0.0259123 -2.72195e-10 2.56623e-11 1.07717e-09 -2.22167 -0.733487 0.20892 -2.03217e-16 0.0 -3.88251e-19 0.669596 -1.39398 0.751779 0.00265474 6.45168 0.0577885 -0.396331 -0.759792 1.08897 2.03217e-16 0.0 3.88251e-19 0.680883 -9.18273 -0.623701 0.0163718 7.38207 -0.0303098 0.231827 1.09788 -3.88954
-63.5338 84.0146 -70.5694 179.749 10.8796 177.328 3.29982 8.48682 -2.88692 2.09906 -2.42523 -0.48398 -5.45493 12.3992 -15.022 17.1185 6.7461 -27.3895 -0.0 0.0 0.0 -0.0 0.0 0.0 -2.25078e-14 1.46297e-13 2.16259e-13 42.5008 14.1787 10.7882 -8.88499 -4.35814 14.6292 -0.00300439 3.31233 0.465461 -1.108e-09 3.83283e-09 -4.50833e-10 -1.91875e-09 6.63395e-09 -7.71281e-10 -1.10799e-09 3.83283e-09 -4.50841e-10 7.73091 5.47488 0.417314 -1.108e-09 3.83283e-09 -4.50834e-10 2.90554 0.965183 0.102902 -1.10799e-09 3.83283e-09 -4.50834e-10 10.2786 0.731801 0.0259123 -1.108e-09 3.83283e-09 -4.50825e-10 2.22167 -0.733487 -0.20892 -2.25651e-14 1.46312e-13 2.15902e-13 -45.6091 7.8004 4.53841 7.54067 -3.40071 -12.5444 0.00334944 3.49509 -0.491136 -5.31008e-10 7.80868e-11 2.28392e-09 -9.0497e-10 1.41247e-10 3.95419e-09 -5.31011e-10 7.80883e-11 2.28393e-09 -7.73091 5.47488 -0.417314 -5.31006e-10 7.80898e-11 2.28392e-09 -2.90554 0.965183 -0.102902 -5.31018e-10 7.80894e-11 2.28392e-09 -10.2786 0.731801 -0.0259123 -5.31001e-10 7.80894e-11 2.28391e-09 -2.22167 -0.733487 0.20892 -2.03217e-16 0.0 -3.88251e-19 0.960311 0.148687 1.58083 -0.0188555 13.7045 0.1843 -0.134248 -4.99844 2.13152 2.03217e-16 0.0 3.88251e-19 1.9462 -15.1086 -1.37835 0.0460553 14.1016 -0.103314 -0.281451 -0.518483 -7.94021
-63.5082 83.9847 -69.7915 179.67 11.2971 177.163 5.18288 12.3792 -4.2722 3.07601 -3.54001 -0.704988 -5.73779 17.3786 -22.453 26.9992 8.50547 -40.1597 -0.0 0.0 0.0 -0.0 0.0 0.0 -3.17406e-14 2.0752e-13 3.10645e-13 60.1002 20.2739 16.2566 -12.2265 -6.12157 21.4058 -0.0223548 4.82276 0.679011 -1.60461e-09 5.50503e-09 -6.55485e-10 -2.77874e-09 9.52826e-09 -1.12149e-09 -1.6046e-09 5.50503e-09 -6.55493e-10 7.73091 5.47488 0.417314 -1.60461e-09 5.50503e-09 -6.55485e-10 2.90554 0.965183 0.102902 -1.6046e-09 5.50503e-09 -6.55484e-10 10.2786 0.731801 0.0259123 -1.60461e-09 5.50503e-09 -6.55477e-10 2.22167 -0.733487 -0.20892 -3.17822e-14 2.07542e-13 3.10312e-13 -66.945 11.3524 6.67428 10.4983 -4.81995 -18.3183 0.0248902 5.08762 -0.716448 -7.88707e-10 7.70207e-11 3.23179e-09 -1.34513e-09 1.42035e-10 5.59552e-09 -7.8871e-10 7.70214e-11 3.2318e-09 -7.73091 5.47488 -0.417314 -7.88703e-10 7.70247e-11 3.23178e-09 -2.90554 0.965183 -0.102902 -7.88714e-10 7.70239e-11 3.23179e-09 -10.2786 0.731801 -0.0259123 -7.887e-10 7.70244e-11 3.23179e-09 -2.22167 -0.733487 0.20892 -2.03217e-16 0.0 -3.88251e-19 1.17918 1.47077 2.32349 -0.066623 20.2185 0.308146 0.225703 -8.78407 3.05529 2.03217e-16 0.0 3.88251e-19 2.92541 -20.3714 -2.08232 0.0887257 20.2712 -0.177394 -0.92277 -1.94903 -11.4502
-63.5068 83.9903 -69.0445 179.558 11.5236 176.973 6.57838 15.1523 -5.3173 3.7654 -4.33095 -0.869424 -5.14488 20.4104 -27.9141 34.4089 8.95414 -49.0531 -0.0 0.0 0.0 -0.0 0.0 0.0 -3.65577e-14 2.28989e-13 3.59552e-13 71.6006 24.2928 20.3299 -14.3143 -7.21082 26.1886 -0.0421275 5.84793 0.824767 -1.9332e-09 6.36317e-09 -7.91115e-10 -3.34759e-09 1.10136e-08 -1.35392e-09 -1.93318e-09 6.36317e-09 -7.91125e-10 7.73091 5.47488 0.417314 -1.9332e-09 6.36317e-09 -7.91115e-10 2.90554 0.965183 0.102902 -1.93319e-09 6.36317e-09 -7.91114e-10 10.2786 0.731801 0.0259123 -1.9332e-09 6.36317e-09 -7.91109e-10 2.22167 -0.733487 -0.20892 -3.65975e-14 2.29011e-13 3.59254e-13 -82.0186 13.8646 8.15789 12.3683 -5.71027 -22.3249 0.0468285 6.16408 -0.869697 -1.04364e-09 -5.77748e-11 3.53248e-09 -1.78436e-09 -9.00097e-11 6.11729e-09 -1.04364e-09 -5.77748e-11 3.5325e-09 -7.73091 5.47488 -0.417314 -1.04363e-09 -5.77706e-11 3.53248e-09 -2.90554 0.965183 -0.102902 -1.04364e-09 -5.77716e-11 3.53248e-09 -10.2786 0.731801 -0.0259123 -1.04363e-09 -5.77708e-11 3.53248e-09 -2.22167 -0.733487 0.20892 -2.03217e-16 0.0 -3.88251e-19 1.30501 2.24342 2.8484 -0.118394 24.8856 0.408368 0.531322 -11.4496 3.6417 2.03217e-16 0.0 3.88251e-19 3.50383 -23.9869 -2.56051 0.132777 25.0663 -0.245932 -1.44684 -2.97105 -13.5972
-63.5248 84.0026 -68.3158 179.372 11.6906 176.741 7.06416 16.4032 -5.81239 4.06009 -4.67937 -0.950436 -4.81409 21.543 -30.0659 37.4251 8.96996 -52.4206 -0.0 0.0 0.0 -0.0 0.0 0.0 -3.61787e-14 1.86621e-13 3.43364e-13 75.9133 25.9143 21.8458 -15.105 -7.6194 28.127 -0.0504845 6.19985 0.875009 -2.04824e-09 6.04599e-09 -8.43587e-10 -3.54637e-09 1.0465e-08 -1.44481e-09 -2.04823e-09 6.04598e-09 -8.43599e-10 7.73091 5.47488 0.417314 -2.04824e-09 6.04599e-09 -8.43588e-10 2.90554 0.965183 0.102902 -2.04823e-09 6.04598e-09 -8.43587e-10 10.2786 0.731801 0.0259123 -2.04824e-09 6.04598e-09 -8.43582e-10 2.22167 -0.733487 -0.20892 -3.62376e-14 1.86635e-13 3.43127e-13 -88.031 14.9632 8.65597 13.0272 -6.00973 -23.8227 0.0558303 6.51915 -0.92048 -1.35342e-09 -4.44751e-10 2.81131e-09 -2.32461e-09 -7.60561e-10 4.87168e-09 -1.35342e-09 -4.44752e-10 2.81133e-09 -7.73091 5.47488 -0.417314 -1.35341e-09 -4.44748e-10 2.81131e-09 -2.90554 0.965183 -0.102902 -1.35342e-09 -4.44749e-10 2.81131e-09 -10.2786 0.731801 -0.0259123 -1.35341e-09 -4.44748e-10 2.81131e-09 -2.22167 -0.733487 0.20892 -2.03217e-16 0.0 -3.88251e-19 1.31748 2.25341 3.07167 -0.144559 26.9767 0.462258 0.624482 -12.5716 3.71843 2.03217e-16 0.0 3.88251e-19 3.65187 -25.29 -2.6659 0.163618 27.8884 -0.300035 -1.61311 -3.46669 -13.8006
